<svg xmlns="http://www.w3.org/2000/svg" xmlns:xlink="http://www.w3.org/1999/xlink" width="1024" zoomAndPan="magnify" viewBox="0 0 768 383.249997" height="511" preserveAspectRatio="xMidYMid meet" version="1.0"><defs><g/><clipPath id="d80e91acc2"><path d="M 0.75 18.082031 L 105.6875 18.082031 L 105.6875 123.019531 L 0.75 123.019531 Z M 0.75 18.082031 " clip-rule="nonzero"/></clipPath><clipPath id="d43600a4fb"><path d="M 15.722656 18.082031 L 90.71875 18.082031 C 94.6875 18.082031 98.496094 19.660156 101.300781 22.46875 C 104.109375 25.273438 105.6875 29.082031 105.6875 33.054688 L 105.6875 108.050781 C 105.6875 112.019531 104.109375 115.828125 101.300781 118.636719 C 98.496094 121.441406 94.6875 123.019531 90.71875 123.019531 L 15.722656 123.019531 C 11.75 123.019531 7.941406 121.441406 5.136719 118.636719 C 2.328125 115.828125 0.75 112.019531 0.75 108.050781 L 0.75 33.054688 C 0.75 29.082031 2.328125 25.273438 5.136719 22.46875 C 7.941406 19.660156 11.75 18.082031 15.722656 18.082031 " clip-rule="nonzero"/></clipPath><clipPath id="2b6f5a42f3"><path d="M 129.714844 18.082031 L 234.652344 18.082031 L 234.652344 123.019531 L 129.714844 123.019531 Z M 129.714844 18.082031 " clip-rule="nonzero"/></clipPath><clipPath id="a8e3974a6b"><path d="M 144.6875 18.082031 L 219.683594 18.082031 C 223.652344 18.082031 227.460938 19.660156 230.269531 22.46875 C 233.074219 25.273438 234.652344 29.082031 234.652344 33.054688 L 234.652344 108.050781 C 234.652344 112.019531 233.074219 115.828125 230.269531 118.636719 C 227.460938 121.441406 223.652344 123.019531 219.683594 123.019531 L 144.6875 123.019531 C 140.714844 123.019531 136.90625 121.441406 134.101562 118.636719 C 131.292969 115.828125 129.714844 112.019531 129.714844 108.050781 L 129.714844 33.054688 C 129.714844 29.082031 131.292969 25.273438 134.101562 22.46875 C 136.90625 19.660156 140.714844 18.082031 144.6875 18.082031 " clip-rule="nonzero"/></clipPath><clipPath id="90d17ebda6"><path d="M 258.679688 18.082031 L 363.617188 18.082031 L 363.617188 123.019531 L 258.679688 123.019531 Z M 258.679688 18.082031 " clip-rule="nonzero"/></clipPath><clipPath id="26ba4ca4d7"><path d="M 273.652344 18.082031 L 348.648438 18.082031 C 352.617188 18.082031 356.425781 19.660156 359.234375 22.46875 C 362.039062 25.273438 363.617188 29.082031 363.617188 33.054688 L 363.617188 108.050781 C 363.617188 112.019531 362.039062 115.828125 359.234375 118.636719 C 356.425781 121.441406 352.617188 123.019531 348.648438 123.019531 L 273.652344 123.019531 C 269.679688 123.019531 265.871094 121.441406 263.066406 118.636719 C 260.257812 115.828125 258.679688 112.019531 258.679688 108.050781 L 258.679688 33.054688 C 258.679688 29.082031 260.257812 25.273438 263.066406 22.46875 C 265.871094 19.660156 269.679688 18.082031 273.652344 18.082031 " clip-rule="nonzero"/></clipPath><clipPath id="3fb5bb5a1f"><path d="M 387.644531 18.082031 L 492.582031 18.082031 L 492.582031 123.019531 L 387.644531 123.019531 Z M 387.644531 18.082031 " clip-rule="nonzero"/></clipPath><clipPath id="1845921ac2"><path d="M 402.617188 18.082031 L 477.613281 18.082031 C 481.582031 18.082031 485.390625 19.660156 488.199219 22.46875 C 491.007812 25.273438 492.582031 29.082031 492.582031 33.054688 L 492.582031 108.050781 C 492.582031 112.019531 491.007812 115.828125 488.199219 118.636719 C 485.390625 121.441406 481.582031 123.019531 477.613281 123.019531 L 402.617188 123.019531 C 398.644531 123.019531 394.839844 121.441406 392.03125 118.636719 C 389.222656 115.828125 387.644531 112.019531 387.644531 108.050781 L 387.644531 33.054688 C 387.644531 29.082031 389.222656 25.273438 392.03125 22.46875 C 394.839844 19.660156 398.644531 18.082031 402.617188 18.082031 " clip-rule="nonzero"/></clipPath><clipPath id="20e2c05f16"><path d="M 516.609375 18.082031 L 621.546875 18.082031 L 621.546875 123.019531 L 516.609375 123.019531 Z M 516.609375 18.082031 " clip-rule="nonzero"/></clipPath><clipPath id="b0c8511292"><path d="M 531.582031 18.082031 L 606.578125 18.082031 C 610.546875 18.082031 614.355469 19.660156 617.164062 22.46875 C 619.972656 25.273438 621.546875 29.082031 621.546875 33.054688 L 621.546875 108.050781 C 621.546875 112.019531 619.972656 115.828125 617.164062 118.636719 C 614.355469 121.441406 610.546875 123.019531 606.578125 123.019531 L 531.582031 123.019531 C 527.613281 123.019531 523.804688 121.441406 520.996094 118.636719 C 518.1875 115.828125 516.609375 112.019531 516.609375 108.050781 L 516.609375 33.054688 C 516.609375 29.082031 518.1875 25.273438 520.996094 22.46875 C 523.804688 19.660156 527.613281 18.082031 531.582031 18.082031 " clip-rule="nonzero"/></clipPath><clipPath id="5d67685c4c"><path d="M 645.578125 18.082031 L 750.515625 18.082031 L 750.515625 123.019531 L 645.578125 123.019531 Z M 645.578125 18.082031 " clip-rule="nonzero"/></clipPath><clipPath id="f7cdbbebe8"><path d="M 660.546875 18.082031 L 735.542969 18.082031 C 739.515625 18.082031 743.320312 19.660156 746.128906 22.46875 C 748.9375 25.273438 750.515625 29.082031 750.515625 33.054688 L 750.515625 108.050781 C 750.515625 112.019531 748.9375 115.828125 746.128906 118.636719 C 743.320312 121.441406 739.515625 123.019531 735.542969 123.019531 L 660.546875 123.019531 C 656.578125 123.019531 652.769531 121.441406 649.960938 118.636719 C 647.152344 115.828125 645.578125 112.019531 645.578125 108.050781 L 645.578125 33.054688 C 645.578125 29.082031 647.152344 25.273438 649.960938 22.46875 C 652.769531 19.660156 656.578125 18.082031 660.546875 18.082031 " clip-rule="nonzero"/></clipPath></defs><g clip-path="url(#d80e91acc2)"><g clip-path="url(#d43600a4fb)"><path fill="#222222" d="M 0.75 18.082031 L 105.6875 18.082031 L 105.6875 123.019531 L 0.75 123.019531 Z M 0.75 18.082031 " fill-opacity="1" fill-rule="nonzero"/></g></g><g fill="#ffffff" fill-opacity="1"><g transform="translate(0.750003, 341.693918)"><g><path d="M 93.8125 -130.640625 C 108.632812 -130.640625 120.523438 -125.738281 129.484375 -115.9375 C 138.441406 -106.132812 142.921875 -92.660156 142.921875 -75.515625 L 142.921875 0 L 103.546875 0 L 103.546875 -70.1875 C 103.546875 -78.832031 101.304688 -85.546875 96.828125 -90.328125 C 92.347656 -95.117188 86.320312 -97.515625 78.75 -97.515625 C 71.1875 -97.515625 65.164062 -95.117188 60.6875 -90.328125 C 56.207031 -85.546875 53.96875 -78.832031 53.96875 -70.1875 L 53.96875 0 L 14.359375 0 L 14.359375 -171.40625 L 53.96875 -171.40625 L 53.96875 -111.875 C 57.988281 -117.59375 63.472656 -122.148438 70.421875 -125.546875 C 77.367188 -128.941406 85.164062 -130.640625 93.8125 -130.640625 Z M 93.8125 -130.640625 "/></g></g></g><g fill="#ffffff" fill-opacity="1"><g transform="translate(156.873569, 341.693918)"><g><path d="M 6.484375 -64.859375 C 6.484375 -78.140625 8.992188 -89.796875 14.015625 -99.828125 C 19.035156 -109.867188 25.867188 -117.59375 34.515625 -123 C 43.160156 -128.40625 52.8125 -131.109375 63.46875 -131.109375 C 72.582031 -131.109375 80.570312 -129.253906 87.4375 -125.546875 C 94.3125 -121.835938 99.601562 -116.972656 103.3125 -110.953125 L 103.3125 -129.25 L 142.921875 -129.25 L 142.921875 0 L 103.3125 0 L 103.3125 -18.296875 C 99.445312 -12.273438 94.078125 -7.410156 87.203125 -3.703125 C 80.335938 0.00390625 72.347656 1.859375 63.234375 1.859375 C 52.734375 1.859375 43.160156 -0.878906 34.515625 -6.359375 C 25.867188 -11.847656 19.035156 -19.648438 14.015625 -29.765625 C 8.992188 -39.878906 6.484375 -51.578125 6.484375 -64.859375 Z M 103.3125 -64.625 C 103.3125 -74.507812 100.566406 -82.304688 95.078125 -88.015625 C 89.597656 -93.734375 82.921875 -96.59375 75.046875 -96.59375 C 67.171875 -96.59375 60.492188 -93.773438 55.015625 -88.140625 C 49.535156 -82.503906 46.796875 -74.742188 46.796875 -64.859375 C 46.796875 -54.972656 49.535156 -47.132812 55.015625 -41.34375 C 60.492188 -35.550781 67.171875 -32.65625 75.046875 -32.65625 C 82.921875 -32.65625 89.597656 -35.507812 95.078125 -41.21875 C 100.566406 -46.9375 103.3125 -54.738281 103.3125 -64.625 Z M 103.3125 -64.625 "/></g></g></g><g fill="#ffffff" fill-opacity="1"><g transform="translate(314.155348, 341.693918)"><g><path d="M 53.96875 -110.953125 C 57.675781 -116.972656 63.003906 -121.835938 69.953125 -125.546875 C 76.898438 -129.253906 84.851562 -131.109375 93.8125 -131.109375 C 104.46875 -131.109375 114.117188 -128.40625 122.765625 -123 C 131.410156 -117.59375 138.242188 -109.867188 143.265625 -99.828125 C 148.285156 -89.796875 150.796875 -78.140625 150.796875 -64.859375 C 150.796875 -51.578125 148.285156 -39.878906 143.265625 -29.765625 C 138.242188 -19.648438 131.410156 -11.847656 122.765625 -6.359375 C 114.117188 -0.878906 104.46875 1.859375 93.8125 1.859375 C 84.695312 1.859375 76.742188 0.046875 69.953125 -3.578125 C 63.160156 -7.210938 57.832031 -12.039062 53.96875 -18.0625 L 53.96875 0 L 14.359375 0 L 14.359375 -171.40625 L 53.96875 -171.40625 Z M 110.5 -64.859375 C 110.5 -74.742188 107.753906 -82.503906 102.265625 -88.140625 C 96.785156 -93.773438 90.03125 -96.59375 82 -96.59375 C 74.125 -96.59375 67.441406 -93.734375 61.953125 -88.015625 C 56.472656 -82.304688 53.734375 -74.507812 53.734375 -64.625 C 53.734375 -54.738281 56.472656 -46.9375 61.953125 -41.21875 C 67.441406 -35.507812 74.125 -32.65625 82 -32.65625 C 89.875 -32.65625 96.59375 -35.550781 102.15625 -41.34375 C 107.71875 -47.132812 110.5 -54.972656 110.5 -64.859375 Z M 110.5 -64.859375 "/></g></g></g><g fill="#ffffff" fill-opacity="1"><g transform="translate(471.437108, 341.693918)"><g><path d="M 34.28125 -142.6875 C 27.332031 -142.6875 21.65625 -144.734375 17.25 -148.828125 C 12.851562 -152.921875 10.65625 -157.976562 10.65625 -164 C 10.65625 -170.175781 12.851562 -175.3125 17.25 -179.40625 C 21.65625 -183.5 27.332031 -185.546875 34.28125 -185.546875 C 41.070312 -185.546875 46.664062 -183.5 51.0625 -179.40625 C 55.46875 -175.3125 57.671875 -170.175781 57.671875 -164 C 57.671875 -157.976562 55.46875 -152.921875 51.0625 -148.828125 C 46.664062 -144.734375 41.070312 -142.6875 34.28125 -142.6875 Z M 53.96875 -129.25 L 53.96875 0 L 14.359375 0 L 14.359375 -129.25 Z M 53.96875 -129.25 "/></g></g></g><g fill="#ffffff" fill-opacity="1"><g transform="translate(539.770155, 341.693918)"><g><path d="M 86.40625 -33.59375 L 86.40625 0 L 66.25 0 C 51.882812 0 40.6875 -3.507812 32.65625 -10.53125 C 24.625 -17.5625 20.609375 -29.03125 20.609375 -44.9375 L 20.609375 -96.359375 L 4.859375 -96.359375 L 4.859375 -129.25 L 20.609375 -129.25 L 20.609375 -160.765625 L 60.21875 -160.765625 L 60.21875 -129.25 L 86.171875 -129.25 L 86.171875 -96.359375 L 60.21875 -96.359375 L 60.21875 -44.46875 C 60.21875 -40.613281 61.144531 -37.835938 63 -36.140625 C 64.851562 -34.441406 67.941406 -33.59375 72.265625 -33.59375 Z M 86.40625 -33.59375 "/></g></g></g><g fill="#ffffff" fill-opacity="1"><g transform="translate(633.814944, 341.693918)"><g><path d="M 66.9375 1.859375 C 55.664062 1.859375 45.628906 -0.0703125 36.828125 -3.9375 C 28.023438 -7.800781 21.078125 -13.085938 15.984375 -19.796875 C 10.890625 -26.515625 8.03125 -34.046875 7.40625 -42.390625 L 46.5625 -42.390625 C 47.019531 -37.910156 49.101562 -34.28125 52.8125 -31.5 C 56.519531 -28.71875 61.078125 -27.328125 66.484375 -27.328125 C 71.421875 -27.328125 75.238281 -28.289062 77.9375 -30.21875 C 80.644531 -32.15625 82 -34.664062 82 -37.75 C 82 -41.457031 80.066406 -44.195312 76.203125 -45.96875 C 72.347656 -47.75 66.097656 -49.722656 57.453125 -51.890625 C 48.179688 -54.046875 40.457031 -56.320312 34.28125 -58.71875 C 28.101562 -61.113281 22.773438 -64.894531 18.296875 -70.0625 C 13.816406 -75.238281 11.578125 -82.226562 11.578125 -91.03125 C 11.578125 -98.445312 13.625 -105.203125 17.71875 -111.296875 C 21.8125 -117.398438 27.832031 -122.226562 35.78125 -125.78125 C 43.738281 -129.332031 53.203125 -131.109375 64.171875 -131.109375 C 80.378906 -131.109375 93.15625 -127.09375 102.5 -119.0625 C 111.84375 -111.03125 117.207031 -100.375 118.59375 -87.09375 L 82 -87.09375 C 81.382812 -91.570312 79.414062 -95.125 76.09375 -97.75 C 72.769531 -100.375 68.40625 -101.6875 63 -101.6875 C 58.375 -101.6875 54.820312 -100.796875 52.34375 -99.015625 C 49.875 -97.242188 48.640625 -94.816406 48.640625 -91.734375 C 48.640625 -88.023438 50.609375 -85.242188 54.546875 -83.390625 C 58.484375 -81.535156 64.625 -79.679688 72.96875 -77.828125 C 82.539062 -75.359375 90.335938 -72.925781 96.359375 -70.53125 C 102.378906 -68.132812 107.664062 -64.269531 112.21875 -58.9375 C 116.78125 -53.613281 119.140625 -46.476562 119.296875 -37.53125 C 119.296875 -29.957031 117.171875 -23.195312 112.921875 -17.25 C 108.671875 -11.3125 102.570312 -6.640625 94.625 -3.234375 C 86.675781 0.160156 77.445312 1.859375 66.9375 1.859375 Z M 66.9375 1.859375 "/></g></g></g><g clip-path="url(#2b6f5a42f3)"><g clip-path="url(#a8e3974a6b)"><path fill="#3e0f87" d="M 129.714844 18.082031 L 234.652344 18.082031 L 234.652344 123.019531 L 129.714844 123.019531 Z M 129.714844 18.082031 " fill-opacity="1" fill-rule="nonzero"/></g></g><g clip-path="url(#90d17ebda6)"><g clip-path="url(#26ba4ca4d7)"><path fill="#5214b6" d="M 258.679688 18.082031 L 363.617188 18.082031 L 363.617188 123.019531 L 258.679688 123.019531 Z M 258.679688 18.082031 " fill-opacity="1" fill-rule="nonzero"/></g></g><g clip-path="url(#3fb5bb5a1f)"><g clip-path="url(#1845921ac2)"><path fill="#6717e5" d="M 387.644531 18.082031 L 492.582031 18.082031 L 492.582031 123.019531 L 387.644531 123.019531 Z M 387.644531 18.082031 " fill-opacity="1" fill-rule="nonzero"/></g></g><g clip-path="url(#20e2c05f16)"><g clip-path="url(#b0c8511292)"><path fill="#8443ed" d="M 516.609375 18.082031 L 621.546875 18.082031 L 621.546875 123.019531 L 516.609375 123.019531 Z M 516.609375 18.082031 " fill-opacity="1" fill-rule="nonzero"/></g></g><g clip-path="url(#5d67685c4c)"><g clip-path="url(#f7cdbbebe8)"><path fill="#a270f2" d="M 645.578125 18.082031 L 750.515625 18.082031 L 750.515625 123.019531 L 645.578125 123.019531 Z M 645.578125 18.082031 " fill-opacity="1" fill-rule="nonzero"/></g></g></svg>